#!OML:ASF H:\MichaelJackson\Top Level 1\Subject 1\Session 1\male.ASF
:FULLY-SPECIFIED
:DEGREES
617
root 18.0838 16.5858 -0.185179 6.02985 -2.47824 -5.9347
lowerback 5.49077 1.03708 3.06252
upperback 1.93214 1.56418 1.72804
thorax -1.05523 0.781884 -0.039911
lowerneck -7.37875 0.485519 1.81714
upperneck 8.24818 0.531543 -0.890064
head 4.02968 0.279065 -0.589613
rclavicle -2.13694e-015 8.15017e-015
rhumerus -55.506 13.714 -95.3508
rradius 71.2119
rwrist 6.16627
rhand -37.7114 -29.5174
rfingers 7.12502
rthumb -10.7609 -59.2217
lclavicle -2.13694e-015 8.15017e-015
lhumerus -35.3703 -2.82836 88.4593
lradius 40.4126
lwrist 2.05891
lhand 3.38117 8.59276
lfingers 7.12502
lthumb 28.8247 36.3865
rfemur -20.1192 0.345202 28.9595
rtibia 38.1013
rfoot -21.9251 5.00581
rtoes 13.5571
lfemur -46.7453 17.7242 -18.7719
ltibia 60.7433
lfoot -7.01862 6.66549
ltoes 26.2608
618
root 18.1009 16.5895 -0.0313663 6.05364 -2.64318 -6.18846
lowerback 5.29798 1.03349 3.24267
upperback 1.91064 1.56103 1.76588
thorax -0.965995 0.781523 -0.0976659
lowerneck -7.39833 0.564651 1.89841
upperneck 8.30829 0.630001 -0.908023
head 4.05738 0.329621 -0.604606
rclavicle 1.6847e-014 -1.90833e-014
rhumerus -56.1298 15.1529 -95.5514
rradius 72.1319
rwrist 6.0698
rhand -37.8463 -30.2073
rfingers 7.12502
rthumb -10.8911 -59.9048
lclavicle 1.6847e-014 -1.90833e-014
lhumerus -35.9921 -1.86152 88.3042
lradius 39.7832
lwrist 1.7478
lhand 5.71629 10.0671
lfingers 7.12502
lthumb 31.0529 37.4585
rfemur -19.2725 0.200818 29.1307
rtibia 37.6422
rfoot -22.284 5.20043
rtoes 13.3209
lfemur -46.637 18.0464 -18.8107
ltibia 57.769
lfoot -6.82619 7.46751
ltoes 26.4234
619
root 18.1192 16.5933 0.123289 6.10659 -2.77568 -6.43985
lowerback 5.06566 1.02264 3.431
upperback 1.88257 1.54606 1.80088
thorax -0.861463 0.775567 -0.161454
lowerneck -7.42393 0.640295 1.98615
upperneck 8.36677 0.722954 -0.926651
head 4.08584 0.377639 -0.621264
rclavicle -2.93207e-015 -4.96962e-016
rhumerus -56.7487 16.6559 -95.7213
rradius 73.0182
rwrist 5.86694
rhand -37.8046 -30.5998
rfingers 7.12502
rthumb -10.8508 -60.2995
lclavicle -2.93207e-015 -4.96962e-016
lhumerus -36.5998 -0.951473 88.1349
lradius 39.1328
lwrist 1.53883
lhand 7.18483 11.3216
lfingers 7.12502
lthumb 32.4516 38.4359
rfemur -18.4389 0.0679097 29.2889
rtibia 37.1469
rfoot -22.6277 5.36247
rtoes 13.0528
lfemur -46.5099 18.3523 -18.8663
ltibia 54.7393
lfoot -6.67118 8.32484
ltoes 26.6186
620
root 18.1382 16.5968 0.278742 6.18101 -2.87468 -6.68527
lowerback 4.80223 1.00638 3.61576
upperback 1.84867 1.52133 1.83657
thorax -0.745978 0.764972 -0.221507
lowerneck -7.46037 0.71041 2.0753
upperneck 8.43246 0.808357 -0.948186
head 4.11913 0.421863 -0.63958
rclavicle 7.95139e-015 -2.5842e-015
rhumerus -57.3752 18.2406 -95.8653
rradius 73.8786
rwrist 5.56097
rhand -37.5628 -30.7538
rfingers 7.12502
rthumb -10.6175 -60.4655
lclavicle 7.95139e-015 -2.5842e-015
lhumerus -37.1896 -0.103387 87.961
lradius 38.4569
lwrist 1.42931
lhand 7.81711 12.3098
lfingers 7.12502
lthumb 33.0531 39.2988
rfemur -17.6138 -0.0445353 29.4356
rtibia 36.6242
rfoot -22.9559 5.47811
rtoes 12.7776
lfemur -46.3603 18.6314 -18.9324
ltibia 51.6788
lfoot -6.59657 9.23995
ltoes 26.7994
621
root 18.1582 16.5991 0.434725 6.27523 -2.94938 -6.92655
lowerback 4.51509 0.990072 3.79396
upperback 1.80702 1.49417 1.87725
thorax -0.625653 0.753274 -0.272382
lowerneck -7.50692 0.772195 2.16112
upperneck 8.50933 0.88328 -0.975533
head 4.15847 0.460571 -0.659873
rclavicle -4.94477e-015 -3.4191e-014
rhumerus -58.0245 19.9307 -95.9909
rradius 74.7146
rwrist 5.18761
rhand -37.1401 -30.7376
rfingers 7.12502
rthumb -10.2098 -60.4699
lclavicle -4.94477e-015 -3.4191e-014
lhumerus -37.7575 0.669249 87.7987
lradius 37.7562
lwrist 1.4324
lhand 7.69929 12.9515
lfingers 7.12502
lthumb 32.9411 39.9641
rfemur -16.801 -0.134067 29.5738
rtibia 36.0807
rfoot -23.2667 5.55459
rtoes 12.5255
lfemur -46.1897 18.8585 -18.9903
ltibia 48.6133
lfoot -6.62637 10.2356
ltoes 26.9492
622
root 18.1791 16.6 0.591003 6.38315 -3.00383 -7.16572
lowerback 4.21406 0.976167 3.96727
upperback 1.75794 1.46837 1.92326
thorax -0.50546 0.742274 -0.315084
lowerneck -7.56652 0.824358 2.24227
upperneck 8.6039 0.945953 -1.00729
head 4.20674 0.492931 -0.681566
rclavicle 5.8393e-015 6.16232e-015
rhumerus -58.7088 21.7469 -96.1121
rradius 75.5222
rwrist 4.7985
rhand -36.5707 -30.5811
rfingers 7.12502
rthumb -9.66048 -60.3396
lclavicle 5.8393e-015 6.16232e-015
lhumerus -38.2991 1.35944 87.6547
lradius 37.0353
lwrist 1.54341
lhand 6.98174 13.1997
lfingers 7.12502
lthumb 32.2583 40.3535
rfemur -15.9956 -0.20043 29.7071
rtibia 35.5187
rfoot -23.5595 5.59988
rtoes 12.3183
lfemur -45.9943 19.0113 -19.0166
ltibia 45.5706
lfoot -6.7732 11.3168
ltoes 27.0599
